<?xml version="1.0" encoding="utf-8"?><svg viewBox="0 0 25 20" xmlns="http://www.w3.org/2000/svg" xmlns:xlink="http://www.w3.org/1999/xlink"><style>:root>svg{display:none}:root>svg:target{display:block}</style><svg fill="none" viewBox="0 0 18 18" id="address" xmlns="http://www.w3.org/2000/svg"><path d="M7.19 16.162v1.828l-.441-.357a29.578 29.578 0 01-3.333-3.266C1.15 11.758 0 9.416 0 7.407v-.2C0 3.233 3.225 0 7.19 0c3.964 0 7.189 3.233 7.189 7.207v.2c0 .168-.009.34-.025.513l-1.406-1.286c-.288-2.93-2.76-5.228-5.759-5.228-3.19 0-5.786 2.603-5.786 5.801v.2c0 3.396 4.365 7.507 5.786 8.755zm4.313-1.01h2.104v-2.109h-2.104v2.11zM7.19 4.22a2.988 2.988 0 010 5.976 2.988 2.988 0 010-5.976zm0 1.406a1.582 1.582 0 000 3.164 1.582 1.582 0 000-3.164zm9.866 8.572l-.395-.361v2.258A1.906 1.906 0 0114.758 18h-4.441a1.906 1.906 0 01-1.902-1.906v-2.258l-.394.36-.946-1.038 5.463-4.996L18 13.158l-.945 1.039zm-1.798-1.644l-2.72-2.487-2.72 2.487v3.54a.5.5 0 00.5.5h4.441a.5.5 0 00.5-.5v-3.54z" fill="#333"/></svg><svg fill="none" viewBox="0 0 18 14" id="email" xmlns="http://www.w3.org/2000/svg"><path d="M16.418.787H1.582C.708.787 0 1.499 0 2.369v9.492c0 .875.713 1.582 1.582 1.582h14.836c.867 0 1.582-.704 1.582-1.582V2.37c0-.868-.705-1.582-1.582-1.582zm-.222 1.055L10.12 7.887A1.572 1.572 0 019 8.351c-.423 0-.82-.165-1.12-.465L1.804 1.842h14.392zM1.055 11.647V2.584l4.557 4.534-4.557 4.529zm.75.742L6.36 7.862l.776.771A2.62 2.62 0 009 9.405c.704 0 1.366-.274 1.864-.77l.776-.773 4.556 4.527H1.804zm15.14-.742l-4.557-4.529 4.557-4.534v9.063z" fill="#333"/></svg><svg fill="none" viewBox="0 0 25 13" id="eye" xmlns="http://www.w3.org/2000/svg"><path d="M12.5 9.33a3.078 3.078 0 100-6.157 3.078 3.078 0 000 6.157z" fill="#008BD0"/><path d="M24.845 5.861C24.619 5.623 19.256 0 12.498 0 5.741 0 .378 5.623.154 5.861a.57.57 0 000 .779c.226.238 5.588 5.864 12.344 5.864 6.758 0 12.123-5.626 12.347-5.864a.567.567 0 000-.779zM12.5 11.011a4.764 4.764 0 01-4.758-4.76A4.764 4.764 0 0112.5 1.49a4.766 4.766 0 014.76 4.76 4.768 4.768 0 01-4.76 4.76zM8.727 1.756C7.442 2.84 6.605 4.441 6.605 6.25c0 1.808.837 3.41 2.122 4.494C5.17 9.6 2.377 7.193 1.377 6.25c1-.941 3.794-3.349 7.35-4.493zm7.547 8.985c1.285-1.082 2.122-2.684 2.122-4.492 0-1.807-.836-3.408-2.123-4.49 3.557 1.143 6.349 3.548 7.348 4.49-1 .942-3.79 3.347-7.347 4.492z" fill="#008BD0"/></svg><svg fill="none" viewBox="0 0 20 20" id="phone" xmlns="http://www.w3.org/2000/svg"><mask id="da" maskUnits="userSpaceOnUse" x="0" y="1.182" width="20" height="19" fill="#000"><path fill="#fff" d="M0 1.182h20v19H0z"/><path d="M16.153 12.207c-.393-.38-.867-.584-1.37-.584-.497 0-.976.2-1.385.58l-1.28 1.187c-.105-.053-.21-.102-.311-.15-.146-.068-.284-.132-.401-.2-1.2-.708-2.289-1.632-3.334-2.826-.506-.595-.846-1.096-1.093-1.605.332-.282.64-.576.94-.859.113-.105.226-.215.34-.32.85-.791.85-1.816 0-2.607L7.153 3.794c-.126-.117-.255-.237-.377-.358a18.529 18.529 0 00-.761-.7c-.393-.362-.863-.554-1.357-.554s-.972.192-1.377.554l-.008.007-1.377 1.292a2.68 2.68 0 00-.88 1.752c-.097 1.1.252 2.125.52 2.796.655 1.646 1.635 3.172 3.098 4.807a18.927 18.927 0 006.346 4.623c.932.41 2.175.897 3.565.98.085.003.174.007.255.007.935 0 1.721-.313 2.337-.934.004-.008.012-.012.016-.02.21-.236.454-.451.709-.681.174-.155.352-.317.526-.486.401-.388.612-.84.612-1.304 0-.467-.215-.915-.624-1.292l-2.223-2.076zm1.45 3.967c-.004.004-.004 0 0 0-.158.159-.32.302-.495.46-.263.234-.53.479-.781.753-.41.407-.891.6-1.523.6-.06 0-.126 0-.186-.004-1.203-.072-2.321-.509-3.16-.882a17.868 17.868 0 01-5.978-4.355C4.1 11.197 3.175 9.766 2.564 8.229c-.377-.939-.515-1.67-.454-2.359.04-.44.223-.806.56-1.119l1.38-1.285c.199-.173.41-.267.616-.267.255 0 .462.143.591.264l.012.01c.248.216.482.438.73.675.125.12.255.241.384.366L7.49 5.542c.43.4.43.769 0 1.168-.117.11-.23.219-.348.324-.34.324-.665.626-1.017.92-.008.007-.016.01-.02.018-.348.324-.284.64-.21.856l.011.034c.288.648.693 1.258 1.309 1.985l.004.004c1.118 1.28 2.296 2.28 3.596 3.044.166.098.336.177.498.252.146.068.284.132.402.2l.048.027a.932.932 0 00.401.094.891.891 0 00.616-.26l1.385-1.289c.138-.128.356-.282.611-.282.252 0 .458.147.584.275l.008.007 2.232 2.076c.417.384.417.78.004 1.18z"/></mask><path d="M16.153 12.207c-.393-.38-.867-.584-1.37-.584-.497 0-.976.2-1.385.58l-1.28 1.187c-.105-.053-.21-.102-.311-.15-.146-.068-.284-.132-.401-.2-1.2-.708-2.289-1.632-3.334-2.826-.506-.595-.846-1.096-1.093-1.605.332-.282.64-.576.94-.859.113-.105.226-.215.34-.32.85-.791.85-1.816 0-2.607L7.153 3.794c-.126-.117-.255-.237-.377-.358a18.529 18.529 0 00-.761-.7c-.393-.362-.863-.554-1.357-.554s-.972.192-1.377.554l-.008.007-1.377 1.292a2.68 2.68 0 00-.88 1.752c-.097 1.1.252 2.125.52 2.796.655 1.646 1.635 3.172 3.098 4.807a18.927 18.927 0 006.346 4.623c.932.41 2.175.897 3.565.98.085.003.174.007.255.007.935 0 1.721-.313 2.337-.934.004-.008.012-.012.016-.02.21-.236.454-.451.709-.681.174-.155.352-.317.526-.486.401-.388.612-.84.612-1.304 0-.467-.215-.915-.624-1.292l-2.223-2.076zm1.45 3.967c-.004.004-.004 0 0 0-.158.159-.32.302-.495.46-.263.234-.53.479-.781.753-.41.407-.891.6-1.523.6-.06 0-.126 0-.186-.004-1.203-.072-2.321-.509-3.16-.882a17.868 17.868 0 01-5.978-4.355C4.1 11.197 3.175 9.766 2.564 8.229c-.377-.939-.515-1.67-.454-2.359.04-.44.223-.806.56-1.119l1.38-1.285c.199-.173.41-.267.616-.267.255 0 .462.143.591.264l.012.01c.248.216.482.438.73.675.125.12.255.241.384.366L7.49 5.542c.43.4.43.769 0 1.168-.117.11-.23.219-.348.324-.34.324-.665.626-1.017.92-.008.007-.016.01-.02.018-.348.324-.284.64-.21.856l.011.034c.288.648.693 1.258 1.309 1.985l.004.004c1.118 1.28 2.296 2.28 3.596 3.044.166.098.336.177.498.252.146.068.284.132.402.2l.048.027a.932.932 0 00.401.094.891.891 0 00.616-.26l1.385-1.289c.138-.128.356-.282.611-.282.252 0 .458.147.584.275l.008.007 2.232 2.076c.417.384.417.78.004 1.18z" fill="#333"/><path d="M16.153 12.207l-.14.144.003.002.137-.146zm-2.755-.004l.136.147-.136-.147zm-1.28 1.187l-.089.179.124.062.101-.094-.136-.147zm-.311-.15l.087-.18-.003-.002-.084.181zm-.401-.2l-.102.172.002.001.1-.173zm-3.334-2.826l-.152.13.002.002.15-.132zM6.98 8.61l-.13-.152-.118.1.068.14.18-.088zm.94-.859l-.137-.146.136.146zm.34-.32l.136.146-.136-.146zm0-2.607l.136-.147-.136.147zM7.153 3.794l-.136.147.136-.147zm-.377-.358l.141-.142-.002-.002-.139.144zm-.761-.7l-.136.147.005.004.13-.151zm-2.734 0l-.133-.15-.003.003.136.147zm-.008.007l-.137-.146.137.146zM1.896 4.035l.136.147-.136-.147zm-.88 1.752l-.198-.019v.002l.199.017zm.52 2.796l.185-.074-.186.074zm3.098 4.807l-.15.133.001.001.149-.134zm6.346 4.623l-.082.182h.002l.08-.182zm3.565.98l-.012.2h.003l.009-.2zm2.592-.927l.142.14.02-.02.014-.026-.176-.094zm.016-.02l-.15-.132-.015.017-.011.021.176.095zm.709-.681l-.133-.15-.001.001.134.149zm.526-.486l-.139-.144.14.144zm-.012-2.596l-.136.146v.001l.136-.147zm-1.268 2.351l.133.15.002-.002-.134-.148zm-.781.753l.141.142.006-.007-.147-.134zm-1.71.596l.013-.2-.012.2zm-3.159-.882l-.082.183h.001l.081-.183zM5.48 12.746l-.15.133h.001l.15-.133zM2.564 8.229l.186-.074-.186.074zM2.11 5.87l-.199-.018.2.018zm.56-1.119l.135.147-.136-.147zm1.38-1.285l-.131-.15-.005.004.136.146zm1.207-.003l-.136.146.136-.146zm.012.01l-.136.147.005.005.131-.151zm.73.675l-.139.145.139-.145zm.384.366l-.138.144.002.002.136-.146zM7.49 5.542l.136-.146-.136.146zm0 1.168l.136.147-.136-.147zm-.348.324l-.134-.149-.004.004.138.145zm-1.017.92L5.996 7.8l-.008.007.136.147zm-.02.018l.136.147.024-.023.016-.029-.176-.095zm-.21.856l-.19.064.001.003.188-.067zm.011.034l-.188.067.003.007.003.007.182-.081zm1.309 1.985l-.153.13.008.008.008.008.137-.146zm.004.004l.15-.132-.006-.008-.008-.007-.136.147zm3.596 3.044l.102-.172-.102.172zm.498.252l-.084.182.085-.182zm.402.2l-.1.173.007.005.008.003.085-.18zm.048.027l.085-.182-.085.181zm1.017-.166l.136.146-.136-.146zm1.385-1.289l-.136-.146.136.146zm1.195-.007l-.143.14.007.006.136-.146zm.008.007l-.136.147.136-.147zm2.232 2.076l-.137.147h.001l.136-.147zm-1.307-2.931c-.426-.413-.949-.64-1.508-.64v.4c.445 0 .87.178 1.23.527l.278-.288zm-1.508-.64c-.555 0-1.08.222-1.522.633l.273.293c.376-.35.807-.527 1.249-.527v-.4zm-1.522.633l-1.28 1.186.273.294 1.28-1.187-.273-.293zm-1.054 1.154c-.107-.053-.217-.104-.314-.152l-.174.36c.105.051.205.098.309.15l.18-.358zm-.317-.153a5.089 5.089 0 01-.385-.191l-.2.346c.126.073.273.14.416.208l.169-.363zm-.384-.19c-1.178-.697-2.251-1.605-3.284-2.786l-.301.264c1.057 1.208 2.162 2.146 3.382 2.866l.203-.344zm-3.282-2.784c-.5-.586-.829-1.073-1.066-1.562l-.36.175c.256.528.607 1.043 1.12 1.647l.306-.26zM7.108 8.761c.337-.286.65-.584.948-.865l-.275-.291c-.301.284-.605.573-.932.852l.26.304zm.947-.864l.171-.162.169-.159-.273-.293-.171.162-.169.159.273.293zm.34-.32c.457-.426.702-.93.702-1.45 0-.521-.245-1.026-.702-1.45l-.273.292c.394.366.575.77.575 1.157 0 .388-.181.791-.575 1.157l.273.293zm0-2.9l-1.106-1.03-.272.294 1.105 1.028.273-.293zm-1.106-1.03a16.118 16.118 0 01-.372-.353l-.282.284c.125.123.257.246.382.363l.272-.293zm-.374-.355a18.728 18.728 0 00-.77-.708l-.26.303c.258.222.51.46.753.693l.277-.288zm-.765-.704c-.426-.392-.943-.606-1.492-.606v.4c.44 0 .862.17 1.221.5l.271-.294zm-1.492-.606c-.548 0-1.073.213-1.51.604l.266.299c.372-.333.804-.503 1.244-.503v-.4zm-1.513.607l-.004.004c-.002 0-.003.002-.005.004l.273.292.004-.003.004-.004-.272-.293zm-.01.008L1.76 3.89l.273.292L3.41 2.89l-.274-.292zM1.76 3.89a2.88 2.88 0 00-.941 1.88l.398.037a2.48 2.48 0 01.816-1.624l-.273-.293zm-.942 1.88c-.101 1.15.263 2.211.532 2.888l.372-.148c-.265-.665-.598-1.653-.505-2.704L.817 5.77zm.532 2.888c.667 1.672 1.661 3.218 3.135 4.866l.299-.266c-1.45-1.622-2.416-3.128-3.062-4.748l-.372.148zm3.136 4.867a19.13 19.13 0 006.413 4.671l.164-.364a18.728 18.728 0 01-6.28-4.575l-.297.268zm6.415 4.672c.936.413 2.207.911 3.633.996l.024-.4c-1.353-.08-2.57-.554-3.496-.962l-.161.366zm3.636.996c.084.004.178.008.264.008v-.4c-.076 0-.16-.003-.247-.007l-.017.4zm.264.008c.984 0 1.823-.331 2.479-.994l-.284-.281c-.575.58-1.309.875-2.195.875v.4zm2.513-1.04a.175.175 0 01-.032.043l.006-.005.01-.012a.226.226 0 00.032-.044l-.352-.19a.172.172 0 01.024-.035l.007-.007c.001 0 .002-.001 0 0a.209.209 0 00-.015.016.223.223 0 00-.032.045l.352.19zm-.01.02c.201-.227.434-.434.693-.666l-.268-.298c-.252.227-.505.45-.725.698l.3.266zm.692-.665c.175-.156.356-.32.533-.493l-.28-.286a15.38 15.38 0 01-.519.48l.266.299zm.532-.492c.432-.418.673-.92.673-1.448h-.4c0 .4-.18.802-.55 1.16l.277.288zm.673-1.448c0-.533-.246-1.032-.688-1.44l-.271.295c.376.346.559.744.559 1.145h.4zm-.687-1.438l-2.224-2.076-.273.292 2.224 2.076.273-.292zm-.91 1.837a.204.204 0 00-.158.075.2.2 0 00.294.272l-.273-.293a.199.199 0 01.333.148.199.199 0 01-.196.198v-.4zm-.142.059c-.153.154-.31.292-.487.453l.269.296c.171-.156.339-.304.501-.466l-.283-.283zm-.485.451a10.47 10.47 0 00-.797.769l.296.27c.243-.268.504-.507.766-.74l-.265-.299zm-.79.762c-.369.366-.799.54-1.382.54v.4c.68 0 1.214-.21 1.664-.657l-.282-.283zm-1.382.54c-.062 0-.12 0-.174-.003l-.025.4c.068.004.14.003.199.003v-.4zm-.175-.003c-1.165-.07-2.256-.494-3.09-.865l-.162.366c.843.375 1.988.825 3.229.898l.024-.399zm-3.088-.864a17.666 17.666 0 01-5.912-4.307l-.298.268a18.067 18.067 0 006.045 4.403l.165-.364zm-5.912-4.306C4.26 11.078 3.351 9.665 2.75 8.155l-.371.148c.622 1.563 1.56 3.014 2.953 4.576l.298-.266zM2.75 8.154c-.37-.92-.497-1.619-.44-2.266l-.398-.035c-.064.73.084 1.494.467 2.45l.371-.149zm-.44-2.266c.036-.39.195-.71.496-.99l-.272-.293a1.88 1.88 0 00-.622 1.247l.398.036zm.496-.99l1.382-1.285-.273-.293-1.381 1.285.272.293zm1.377-1.28c.174-.153.34-.22.484-.22v-.4c-.27 0-.525.123-.747.318l.263.301zm.484-.22c.18 0 .34.104.455.211l.273-.293C5.25 3.182 4.996 3 4.666 3v.4zm.455.211l.006.006.006.005.273-.292a3.135 3.135 0 01-.006-.006l-.006-.006-.273.293zm.017.016c.243.211.475.43.722.668l.277-.289a20.002 20.002 0 00-.736-.681l-.263.302zm.722.668l.192.182.193.183.277-.289-.195-.185c-.065-.06-.128-.12-.19-.18l-.277.289zm.387.367L7.353 5.69l.272-.293L6.52 4.367l-.273.293zM7.353 5.69c.196.182.258.325.258.437 0 .112-.062.255-.258.438l.272.293c.233-.217.386-.459.386-.73 0-.273-.153-.514-.386-.731l-.272.293zm0 .875c-.121.112-.23.217-.346.321l.267.298c.12-.107.237-.22.351-.326l-.272-.293zm-.35.325c-.34.324-.66.621-1.007.911l.256.307c.358-.298.686-.603 1.027-.928l-.276-.29zm-1.015.918l.007-.006-.001.001-.006.005c-.009.007-.038.03-.06.07l.352.19a.177.177 0 01-.043.052c0 .001-.001.001 0 0l.004-.003a.288.288 0 00.02-.016l-.273-.293zm-.02.019c-.206.19-.301.393-.326.59-.024.192.022.359.062.476l.379-.129a.666.666 0 01-.044-.297c.012-.096.058-.214.201-.347l-.272-.293zm-.263 1.07l.006.016.006.017.377-.135-.006-.017-.006-.017-.377.135zm.018.047c.297.67.714 1.297 1.338 2.033l.305-.258c-.607-.718-1-1.312-1.278-1.938l-.365.163zm1.354 2.05l.004.004.273-.293-.004-.003-.273.292zm-.01-.01c1.13 1.294 2.325 2.307 3.646 3.084l.203-.344c-1.28-.753-2.442-1.737-3.548-3.004l-.301.263zm3.646 3.084c.176.104.354.187.515.262l.169-.363a5.487 5.487 0 01-.481-.243l-.203.344zm.515.262c.148.069.277.129.386.191l.2-.346c-.127-.073-.273-.141-.417-.208l-.169.363zm.401.2c-.002-.001-.001-.002.008.004.007.004.023.014.04.022l.17-.363-.009-.005c-.006-.003-.022-.013-.04-.021l-.169.362zm.049.026c.16.075.319.113.485.113v-.4a.73.73 0 01-.316-.076l-.17.363zm.485.113c.418 0 .678-.245.752-.314l-.272-.293a.693.693 0 01-.48.207v.4zm.752-.314l1.385-1.288-.272-.293-1.386 1.288.273.293zm1.385-1.288c.127-.118.298-.23.475-.23v-.4c-.332 0-.599.199-.747.337l.272.293zm.475-.23c.174 0 .332.105.441.216l.286-.28c-.143-.146-.398-.335-.727-.335v.4zm.448.222l.004.004.004.004.272-.293-.004-.004-.004-.004-.272.293zm.008.008l2.231 2.075.273-.292-2.232-2.076-.272.293zm2.232 2.076c.186.171.249.317.249.438s-.063.271-.248.45l.278.288c.227-.22.37-.467.37-.74 0-.273-.146-.517-.378-.73l-.27.294z" fill="#333" mask="url(#da)"/><mask id="db" maskUnits="userSpaceOnUse" x="9.292" y="3.705" width="7" height="8" fill="#000"><path fill="#fff" d="M9.292 3.705h7v8h-7z"/><path d="M10.715 5.86c.995.19 1.9.725 2.62 1.544.723.82 1.19 1.846 1.361 2.975.042.285.258.483.505.483.03 0 .057-.004.088-.008.28-.052.467-.354.421-.673-.205-1.367-.775-2.613-1.645-3.6-.87-.988-1.967-1.635-3.172-1.868-.28-.052-.543.16-.593.474-.049.315.133.621.415.673z"/></mask><path d="M10.715 5.86c.995.19 1.9.725 2.62 1.544.723.82 1.19 1.846 1.361 2.975.042.285.258.483.505.483.03 0 .057-.004.088-.008.28-.052.467-.354.421-.673-.205-1.367-.775-2.613-1.645-3.6-.87-.988-1.967-1.635-3.172-1.868-.28-.052-.543.16-.593.474-.049.315.133.621.415.673z" fill="#333"/><path d="M10.715 5.86c.995.19 1.9.725 2.62 1.544.723.82 1.19 1.846 1.361 2.975.042.285.258.483.505.483.03 0 .057-.004.088-.008.28-.052.467-.354.421-.673-.205-1.367-.775-2.613-1.645-3.6-.87-.988-1.967-1.635-3.172-1.868-.28-.052-.543.16-.593.474-.049.315.133.621.415.673z" stroke="#333" stroke-width=".4" mask="url(#db)"/><mask id="dc" maskUnits="userSpaceOnUse" x="9.438" y="0" width="10" height="11" fill="#000"><path fill="#fff" d="M9.438 0h10v11h-10z"/><path d="M18.967 10.013c-.338-2.251-1.273-4.3-2.71-5.93-1.435-1.63-3.24-2.69-5.223-3.074-.277-.056-.54.16-.589.474-.045.32.14.617.422.673 1.77.34 3.385 1.294 4.669 2.747 1.284 1.457 2.12 3.29 2.42 5.3.042.284.258.483.505.483.03 0 .057-.005.088-.009.277-.047.467-.35.418-.664z"/></mask><path d="M18.967 10.013c-.338-2.251-1.273-4.3-2.71-5.93-1.435-1.63-3.24-2.69-5.223-3.074-.277-.056-.54.16-.589.474-.045.32.14.617.422.673 1.77.34 3.385 1.294 4.669 2.747 1.284 1.457 2.12 3.29 2.42 5.3.042.284.258.483.505.483.03 0 .057-.005.088-.009.277-.047.467-.35.418-.664z" fill="#333"/><path d="M18.967 10.013c-.338-2.251-1.273-4.3-2.71-5.93-1.435-1.63-3.24-2.69-5.223-3.074-.277-.056-.54.16-.589.474-.045.32.14.617.422.673 1.77.34 3.385 1.294 4.669 2.747 1.284 1.457 2.12 3.29 2.42 5.3.042.284.258.483.505.483.03 0 .057-.005.088-.009.277-.047.467-.35.418-.664z" stroke="#333" stroke-width=".4" mask="url(#dc)"/></svg></svg>